{"title":"24 S09E06 SUB-ESP Subtitulado Español 1080p-McFly-H264.MP","uid":10293375,"size":1014534170,"categoryP":"video","categoryS":"hd___tv_shows","magnet":"?xt=urn:btih:79db9c3ca7ca1e5e798f4a94012a812d63557750&amp;dn=24+S09E06+SUB-ESP+Subtitulado+Espa%26ntilde%3Bol+1080p-McFly-H264.MP&amp;tr=udp%3A%2F%2Ftracker.openbittorrent.com%3A80&amp;tr=udp%3A%2F%2Fopen.demonii.com%3A1337&amp;tr=udp%3A%2F%2Ftracker.coppersurfer.tk%3A6969&amp;tr=udp%3A%2F%2Fexodus.desync.com%3A6969","seeders":3,"leechers":0,"uploader":"gunsnik","files":1,"time":1401843592,"description":"General\nComplete name                            : D:BAJADOS2424.S09E06.1080p.h264-McFLY.mp4\nFormat                                   : MPEG-4\nFormat profile                           : Base Media / Version 2\nCodec ID                                 : mp42\nFile size                                : 968 MiB\nDuration                                 : 42mn 46s\nOverall bit rate                         : 3 162 Kbps\nEncoded date                             : UTC 2014-06-04 10:45:00\nTagged date                              : UTC 2014-06-04 10:45:00\n\nVideo\nID                                       : 1\nFormat                                   : AVC\nFormat/Info                              : Advanced Video Codec\nFormat profile                           : &lt;a class=&quot;__cf_email__&quot; href=&quot;/cdn-cgi/l/email-protection&quot; data-cfemail=&quot;de96b7b9b69e92eaf0ee&quot;&gt;[email&amp;#160;protected]&lt;/a&gt;&lt;script cf-hash='f9e31' type=&quot;text/javascript&quot;&gt;\n/* &lt;![CDATA[ */!function(){try{var t=&quot;currentScript&quot;in document?document.currentScript:function(){for(var t=document.getElementsByTagName(&quot;script&quot;),e=t.length;e--;)if(t[e].getAttribute(&quot;cf-hash&quot;))return t[e]}();if(t&amp;&amp;t.previousSibling){var e,r,n,i,c=t.previousSibling,a=c.getAttribute(&quot;data-cfemail&quot;);if(a){for(e=&quot;&quot;,r=parseInt(a.substr(0,2),16),n=2;a.length-n;n+=2)i=parseInt(a.substr(n,2),16)^r,e+=String.fromCharCode(i);e=document.createTextNode(e),c.parentNode.replaceChild(e,c)}}}catch(u){}}();/* ]]&gt; */&lt;/script&gt;\nFormat settings, CABAC                   : Yes\nFormat settings, ReFrames                : 4 frames\nFormat settings, GOP                     : M=8, N=32\nCodec ID                                 : avc1\nCodec ID/Info                            : Advanced Video Coding\nDuration                                 : 42mn 46s\nBit rate mode                            : Variable\nBit rate                                 : 2 637 Kbps\nMaximum bit rate                         : 2 934 Kbps\nWidth                                    : 1 920 pixels\nHeight                                   : 1 080 pixels\nDisplay aspect ratio                     : 16:9\nFrame rate                               : 29.970 fps\nStandard                                 : Component\nColor space                              : YUV\nChroma subsampling                       : 4:2:0\nBit depth                                : 8 bits\nScan type                                : MBAFF\nBits/(Pixel*Frame)                       : 0.042\nStream size                              : 898 MiB (93%)\nTitle                                    : PID 256 Video\nEncoded date                             : UTC 2014-06-04 10:45:00\nTagged date                              : UTC 2014-06-04 10:45:00\nColor primaries                          : BT.709-5, BT.1361, IEC 61966-2-4, SMPTE RP177\nTransfer characteristics                 : BT.709-5, BT.1361\nMatrix coefficients                      : BT.709-5, BT.1361, IEC 61966-2-4 709, SMPTE RP177\n\nAudio\nID                                       : 2\nFormat                                   : MPEG Audio\nFormat version                           : Version 1\nFormat profile                           : Layer 3\nCodec ID                                 : 6B\nDuration                                 : 42mn 46s\nSource duration                          : 42mn 46s\nBit rate mode                            : Constant\nBit rate                                 : 224 Kbps\nChannel(s)                               : 2 channels\nSampling rate                            : 48.0 KHz\nCompression mode                         : Lossy\nStream size                              : 68.5 MiB (7%)\nSource stream size                       : 68.5 MiB\nTitle                                    : PID 257\nWriting library                          : LAME3.99.5\nEncoded date                             : UTC 2014-06-04 10:45:00\nTagged date                              : UTC 2014-06-04 10:45:00\n\n\nCapturas: &lt;a href=&quot;\nhttp://i39.servimg.com/u/f39/11/56/14/72/24_s0914.jpg&quot; rel=&quot;nofollow&quot; target=&quot;_NEW&quot;&gt;\nhttp://i39.servimg.com/u/f39/11/56/14/72/24_s0914.jpg&lt;/a&gt; &lt;a href=&quot;\nhttp://i39.servimg.com/u/f39/11/56/14/72/24_s0915.jpg&quot; rel=&quot;nofollow&quot; target=&quot;_NEW&quot;&gt;\nhttp://i39.servimg.com/u/f39/11/56/14/72/24_s0915.jpg&lt;/a&gt; &lt;a href=&quot;\nhttp://i39.servimg.com/u/f39/11/56/14/72/24_s0916.jpg&quot; rel=&quot;nofollow&quot; target=&quot;_NEW&quot;&gt;\nhttp://i39.servimg.com/u/f39/11/56/14/72/24_s0916.jpg&lt;/a&gt; &lt;a href=&quot;\nhttp://i39.servimg.com/u/f39/11/56/14/72/24_s0917.jpg&quot; rel=&quot;nofollow&quot; target=&quot;_NEW&quot;&gt;\nhttp://i39.servimg.com/u/f39/11/56/14/72/24_s0917.jpg&lt;/a&gt;","torrent":{"xt":"urn:btih:79db9c3ca7ca1e5e798f4a94012a812d63557750","amp;dn":"24+S09E06+SUB-ESP+Subtitulado+Espa%26ntilde%3Bol+1080p-McFly-H264.MP","amp;tr":["udp%3A%2F%2Ftracker.openbittorrent.com%3A80","udp%3A%2F%2Fopen.demonii.com%3A1337","udp%3A%2F%2Ftracker.coppersurfer.tk%3A6969","udp%3A%2F%2Fexodus.desync.com%3A6969"],"infoHash":"79db9c3ca7ca1e5e798f4a94012a812d63557750","infoHashBuffer":{"type":"Buffer","data":[121,219,156,60,167,202,30,94,121,143,74,148,1,42,129,45,99,85,119,80]},"announce":[],"urlList":[]}}